<?xml version="1.0" encoding="utf-8"?>
<!-- Generated by IcoMoon.io -->
<!DOCTYPE svg PUBLIC "-//W3C//DTD SVG 1.1//EN" "http://www.w3.org/Graphics/SVG/1.1/DTD/svg11.dtd">
<svg version="1.1" xmlns="http://www.w3.org/2000/svg" xmlns:xlink="http://www.w3.org/1999/xlink" width="32" height="32" viewBox="0 0 32 32">
<path fill="#17AB91" d="M29.333 7.627l-6.127-5.14-1.713 2.040 6.127 5.14 1.713-2.040zM10.507 4.52l-1.713-2.040-6.127 5.14 1.713 2.040 6.127-5.14zM16.667 10.667h-2v8l6.327 3.807 1.007-1.647-5.333-3.16v-7zM15.993 5.333c-6.633 0-11.993 5.373-11.993 12s5.36 12 11.993 12 12.007-5.373 12.007-12-5.373-12-12.007-12zM16 26.667c-5.153 0-9.333-4.18-9.333-9.333s4.18-9.333 9.333-9.333 9.333 4.18 9.333 9.333-4.173 9.333-9.333 9.333z"></path>
</svg>
