<?xml version="1.0" encoding="utf-8"?>
<!-- Generated by IcoMoon.io -->
<!DOCTYPE svg PUBLIC "-//W3C//DTD SVG 1.1//EN" "http://www.w3.org/Graphics/SVG/1.1/DTD/svg11.dtd">
<svg version="1.1" xmlns="http://www.w3.org/2000/svg" xmlns:xlink="http://www.w3.org/1999/xlink" width="32" height="32" viewBox="0 0 32 32">
<path fill="#17AB91" d="M25.333 4h-5.58c-0.547-1.547-2.013-2.667-3.753-2.667s-3.207 1.12-3.753 2.667h-5.58c-1.473 0-2.667 1.193-2.667 2.667v18.667c0 1.473 1.193 2.667 2.667 2.667h18.667c1.473 0 2.667-1.193 2.667-2.667v-18.667c0-1.473-1.193-2.667-2.667-2.667zM16 4c0.733 0 1.333 0.593 1.333 1.333s-0.6 1.333-1.333 1.333-1.333-0.593-1.333-1.333 0.6-1.333 1.333-1.333zM18.667 22.667h-9.333v-2.667h9.333v2.667zM22.667 17.333h-13.333v-2.667h13.333v2.667zM22.667 12h-13.333v-2.667h13.333v2.667z"></path>
</svg>
